{"title":"Who framed Roger Rabbit (PSP + Ipod touch + Zune)","uid":5655267,"size":395859229,"categoryP":"video","categoryS":"handheld","magnet":"?xt=urn:btih:ebdbe5ddca0974a89949e40fed1569a85dde69df&amp;dn=Who+framed+Roger+Rabbit+%28PSP+%2B+Ipod+touch+%2B+Zune%29&amp;tr=udp%3A%2F%2Ftracker.openbittorrent.com%3A80&amp;tr=udp%3A%2F%2Fopen.demonii.com%3A1337&amp;tr=udp%3A%2F%2Ftracker.coppersurfer.tk%3A6969&amp;tr=udp%3A%2F%2Fexodus.desync.com%3A6969","seeders":0,"leechers":1,"uploader":"on.off.on","files":-1,"time":1277774241,"description":"Who Framed Roger Rabbit &lt;a href=&quot;\nhttp://www.imdb.com/title/tt0096438/&quot; rel=&quot;nofollow&quot; target=&quot;_NEW&quot;&gt;\nhttp://www.imdb.com/title/tt0096438/&lt;/a&gt;\n\nSource  :\n\nWho Framed Roger Rabbit (1988) 720p x264 DTS-DiC\n\n\nInfo    :\n\nID                               : 1\nFormat                           : AVC\nFormat/Info                      : Advanced Video Codec\nFormat profile                   : &lt;a class=&quot;__cf_email__&quot; href=&quot;/cdn-cgi/l/email-protection&quot; data-cfemail=&quot;d99bb8aabcb5b0b7bc9995ebf7e8&quot;&gt;[email&amp;#160;protected]&lt;/a&gt;&lt;script cf-hash='f9e31' type=&quot;text/javascript&quot;&gt;\n/* &lt;![CDATA[ */!function(){try{var t=&quot;currentScript&quot;in document?document.currentScript:function(){for(var t=document.getElementsByTagName(&quot;script&quot;),e=t.length;e--;)if(t[e].getAttribute(&quot;cf-hash&quot;))return t[e]}();if(t&amp;&amp;t.previousSibling){var e,r,n,i,c=t.previousSibling,a=c.getAttribute(&quot;data-cfemail&quot;);if(a){for(e=&quot;&quot;,r=parseInt(a.substr(0,2),16),n=2;a.length-n;n+=2)i=parseInt(a.substr(n,2),16)^r,e+=String.fromCharCode(i);e=document.createTextNode(e),c.parentNode.replaceChild(e,c)}}}catch(u){}}();/* ]]&gt; */&lt;/script&gt;\nFormat settings, CABAC           : No\nFormat settings, ReFrames        : 3 frames\nCodec ID                         : avc1\nCodec ID/Info                    : Advanced Video Coding\nDuration                         : 1h 39mn\nBit rate mode                    : Variable\nBit rate                         : 400 Kbps\nWidth                            : 480 pixels\nHeight                           : 272 pixels\nDisplay aspect ratio             : 16:9\nFrame rate mode                  : Constant\nFrame rate                       : 25.000 fps\nColor space                      : YUV\nChroma subsampling               : 4:2:0\nBit depth                        : 8 bits\nScan type                        : Progressive\nBits/(Pixel*Frame)               : 0.123\nStream size                      : 285 MiB (75%)\nWriting library                  : x264 core 79\n\nID                               : 2\nFormat                           : AAC\nFormat/Info                      : Advanced Audio Codec\nFormat version                   : Version 4\nFormat profile                   : LC\nFormat settings, SBR             : No\nCodec ID                         : 40\nDuration                         : 1h 39mn\nBit rate mode                    : Variable\nBit rate                         : 128 Kbps\nMaximum bit rate                 : 156 Kbps\nChannel(s)                       : 2 channels\nChannel positions                : Front: L R\nSampling rate                    : 48.0 KHz\nStream size                      : 90.8 MiB (24%)\nLanguage                         : English\n\nScreens :  &lt;a href=&quot;\nhttp://img535.imageshack.us/img535/6673/vlcsnap00001db.png&quot; rel=&quot;nofollow&quot; target=&quot;_NEW&quot;&gt;\nhttp://img535.imageshack.us/img535/6673/vlcsnap00001db.png&lt;/a&gt; &lt;a href=&quot;\nhttp://img805.imageshack.us/img805/9823/vlcsnap00002.png&quot; rel=&quot;nofollow&quot; target=&quot;_NEW&quot;&gt;\nhttp://img805.imageshack.us/img805/9823/vlcsnap00002.png&lt;/a&gt; &lt;a href=&quot;\nhttp://img823.imageshack.us/img823/4875/vlcsnap00003q.png&quot; rel=&quot;nofollow&quot; target=&quot;_NEW&quot;&gt;\nhttp://img823.imageshack.us/img823/4875/vlcsnap00003q.png&lt;/a&gt; &lt;a href=&quot;\nhttp://img267.imageshack.us/img267/2807/vlcsnap00004y.png&quot; rel=&quot;nofollow&quot; target=&quot;_NEW&quot;&gt;\nhttp://img267.imageshack.us/img267/2807/vlcsnap00004y.png&lt;/a&gt; &lt;a href=&quot;\nhttp://img52.imageshack.us/img52/9884/vlcsnap00005kc.png&quot; rel=&quot;nofollow&quot; target=&quot;_NEW&quot;&gt;\nhttp://img52.imageshack.us/img52/9884/vlcsnap00005kc.png&lt;/a&gt; &lt;a href=&quot;\nhttp://img4.imageshack.us/img4/3568/vlcsnap00006i.png&quot; rel=&quot;nofollow&quot; target=&quot;_NEW&quot;&gt;\nhttp://img4.imageshack.us/img4/3568/vlcsnap00006i.png&lt;/a&gt; &lt;a href=&quot;\nhttp://img686.imageshack.us/img686/934/vlcsnap00007q.png&quot; rel=&quot;nofollow&quot; target=&quot;_NEW&quot;&gt;\nhttp://img686.imageshack.us/img686/934/vlcsnap00007q.png&lt;/a&gt;\n\n\nPLEASE LET THE TORRENT SEED AND SHARE IT WITH ALL YOU KNOW!\n\nLet me know what I can do to be your trusted source of Handheld videos. &lt;a href=&quot;\nhttp://thepiratebay.se/user/on.off.on/&quot; rel=&quot;nofollow&quot; target=&quot;_NEW&quot;&gt;\nhttp://thepiratebay.se/user/on.off.on/&lt;/a&gt; -OOO","torrent":{"xt":"urn:btih:ebdbe5ddca0974a89949e40fed1569a85dde69df","amp;dn":"Who+framed+Roger+Rabbit+%28PSP+%2B+Ipod+touch+%2B+Zune%29","amp;tr":["udp%3A%2F%2Ftracker.openbittorrent.com%3A80","udp%3A%2F%2Fopen.demonii.com%3A1337","udp%3A%2F%2Ftracker.coppersurfer.tk%3A6969","udp%3A%2F%2Fexodus.desync.com%3A6969"],"infoHash":"ebdbe5ddca0974a89949e40fed1569a85dde69df","infoHashBuffer":{"type":"Buffer","data":[235,219,229,221,202,9,116,168,153,73,228,15,237,21,105,168,93,222,105,223]},"announce":[],"urlList":[]}}